<svg width="589" height="180" viewBox="0 0 589 180" fill="none" xmlns="http://www.w3.org/2000/svg">
<rect width="589" height="180" rx="36" fill="#2D9CDB"/>
<g filter="url(#filter0_d)">
<path d="M44.4063 119.23C44.4663 118.75 45.1263 114.28 46.3863 105.82C49.0263 88.18 50.3463 72.19 50.3463 57.85C50.3463 53.11 49.9263 49.75 49.0863 47.77C55.5063 49.45 59.5263 52.09 61.1463 55.69C65.7663 53.11 70.6563 51.82 75.8163 51.82C80.9763 51.82 85.1763 53.29 88.4163 56.23C91.7163 59.11 93.3663 62.65 93.3663 66.85C93.3663 70.99 91.8663 74.86 88.8663 78.46C85.8663 82 81.7563 84.64 76.5363 86.38C80.7363 87.28 84.5763 89.32 88.0563 92.5C91.5963 95.62 93.3663 99.49 93.3663 104.11C93.3663 111.19 90.7263 116.65 85.4463 120.49C80.2263 124.27 73.5963 126.16 65.5563 126.16C57.5763 126.16 50.5263 123.85 44.4063 119.23ZM80.6763 68.92C80.6763 66.22 79.8363 63.97 78.1563 62.17C76.4763 60.31 74.1063 59.38 71.0463 59.38C67.9863 59.38 65.0463 60.01 62.2263 61.27C62.2263 64.93 61.4163 74.14 59.7963 88.9C58.2363 103.66 57.4563 113.11 57.4563 117.25C60.0963 118.33 62.6463 118.87 65.1063 118.87C69.3663 118.87 72.8763 117.46 75.6363 114.64C78.3963 111.82 79.7763 108.28 79.7763 104.02C79.7763 99.76 78.3363 96.22 75.4563 93.4C72.5763 90.52 68.5563 88.96 63.3963 88.72L63.1263 85.48C68.6463 84.7 72.9363 82.69 75.9963 79.45C79.1163 76.15 80.6763 72.64 80.6763 68.92ZM106.39 121.75C105.67 120.55 105.22 119.41 105.04 118.33C104.86 117.19 104.77 115.45 104.77 113.11C104.77 110.77 105.76 101.56 107.74 85.48C109.78 69.4 110.8 58.36 110.8 52.36C110.8 46.36 110.44 42.46 109.72 40.66C114.22 41.86 117.28 43.69 118.9 46.15C120.58 48.55 121.42 51.97 121.42 56.41C121.42 59.05 120.55 67.63 118.81 82.15C117.07 96.67 116.2 108.37 116.2 117.25C116.2 119.17 116.32 121.87 116.56 125.35C111.1 125.11 107.71 123.91 106.39 121.75ZM161.005 72.07C162.805 71.95 164.065 71.89 164.785 71.89C167.905 71.89 170.275 72.46 171.895 73.6C173.515 74.74 174.325 76.84 174.325 79.9C174.325 80.86 173.755 85.09 172.615 92.59C171.475 100.03 170.905 106.42 170.905 111.76C170.905 117.1 171.475 121.81 172.615 125.89C168.115 124.45 164.995 122.41 163.255 119.77C161.515 117.13 160.645 113.86 160.645 109.96C160.645 108.46 160.975 105.07 161.635 99.79C159.775 106.63 156.925 112.39 153.085 117.07C149.305 121.69 145.735 124 142.375 124C135.475 124 132.025 119.02 132.025 109.06C132.025 105.76 132.505 101.17 133.465 95.29C134.485 89.35 134.995 84.85 134.995 81.79C134.995 78.73 134.575 75.64 133.735 72.52C138.715 72.52 142.315 73.18 144.535 74.5C146.815 75.76 147.955 78.31 147.955 82.15C147.955 84.19 147.325 88.24 146.065 94.3C144.805 100.36 144.175 104.92 144.175 107.98C144.175 112.42 145.375 114.64 147.775 114.64C148.975 114.64 150.355 113.83 151.915 112.21C153.475 110.53 154.975 108.34 156.415 105.64C157.855 102.88 159.055 99.46 160.015 95.38C161.035 91.24 161.545 87.07 161.545 82.87C161.545 78.61 161.365 75.01 161.005 72.07ZM206.405 101.86C203.525 101.86 200.705 101.53 197.945 100.87C197.885 101.47 197.855 102.4 197.855 103.66C197.855 108.64 198.785 112.39 200.645 114.91C202.505 117.43 204.725 118.69 207.305 118.69C209.885 118.69 212.345 117.91 214.685 116.35C217.025 114.79 219.065 112.63 220.805 109.87C222.965 110.35 224.045 111.46 224.045 113.2C218.765 121.3 211.955 125.35 203.615 125.35C198.575 125.35 194.165 123.43 190.385 119.59C186.605 115.69 184.715 110.29 184.715 103.39C184.715 98.23 185.705 93.34 187.685 88.72C189.665 84.04 192.815 80.11 197.135 76.93C201.455 73.69 206.225 72.07 211.445 72.07C216.725 72.07 220.595 73.27 223.055 75.67C225.515 78.07 226.745 81.22 226.745 85.12C226.745 90.76 224.765 94.96 220.805 97.72C216.905 100.48 212.105 101.86 206.405 101.86ZM210.185 77.65C207.125 77.65 204.545 79.54 202.445 83.32C200.345 87.1 198.965 91.69 198.305 97.09H199.655C204.875 97.09 208.715 95.74 211.175 93.04C213.695 90.34 214.955 87.1 214.955 83.32C214.955 81.76 214.535 80.44 213.695 79.36C212.915 78.22 211.745 77.65 210.185 77.65ZM303.753 107.08C301.593 107.92 299.913 108.34 298.713 108.34C295.113 108.34 293.103 107.83 292.683 106.81C286.683 91.39 282.723 81.46 280.803 77.02C280.623 78.64 280.143 82.39 279.363 88.27C277.743 99.79 276.933 109.36 276.933 116.98C276.933 118.84 277.053 121.33 277.293 124.45C273.093 124.45 270.243 123.97 268.743 123.01C267.303 121.99 266.583 120.58 266.583 118.78C266.583 118.18 267.573 110.02 269.553 94.3C271.593 78.58 272.613 67.63 272.613 61.45V61C270.873 58.18 269.043 55.87 267.123 54.07C269.343 52.51 272.013 51.73 275.133 51.73C279.093 51.73 282.153 53.59 284.313 57.31C286.473 60.97 290.703 71.08 297.003 87.64L301.143 98.26C301.503 97.66 302.043 96.85 302.763 95.83C317.403 74.17 324.933 59.47 325.353 51.73C325.353 51.79 326.073 51.88 327.513 52C328.953 52.06 330.483 52.36 332.103 52.9C333.783 53.38 334.983 54.16 335.703 55.24C336.483 56.26 336.963 57.28 337.143 58.3C337.323 59.26 337.413 60.94 337.413 63.34C337.413 65.68 336.423 73.63 334.443 87.19C332.463 100.75 331.473 110.26 331.473 115.72C331.473 121.12 331.893 124.81 332.733 126.79C327.633 125.47 324.153 123.73 322.293 121.57C320.433 119.35 319.503 116.29 319.503 112.39C319.503 110.11 320.103 104.5 321.303 95.56C322.563 86.62 323.433 79.48 323.913 74.14C321.513 78.28 318.093 83.95 313.653 91.15C309.273 98.35 306.633 102.64 305.733 104.02C304.833 105.34 304.173 106.36 303.753 107.08ZM376.181 78.91C372.281 78.91 368.801 81.55 365.741 86.83C362.681 92.05 361.151 97.27 361.151 102.49C361.151 113.41 363.971 118.87 369.611 118.87C373.631 118.87 376.901 116.26 379.421 111.04C381.941 105.76 383.201 99.85 383.201 93.31C383.201 83.71 380.861 78.91 376.181 78.91ZM368.531 70.81C369.191 70.81 369.791 71.02 370.331 71.44C370.931 71.8 371.231 72.19 371.231 72.61C365.171 76.81 361.541 82.66 360.341 90.16C361.601 86.8 363.131 83.89 364.931 81.43C366.791 78.97 368.711 77.11 370.691 75.85C374.471 73.51 378.161 72.34 381.761 72.34C385.361 72.34 388.421 74.11 390.941 77.65C393.461 81.19 394.721 85.93 394.721 91.87C394.721 98.53 393.371 104.65 390.671 110.23C387.671 116.53 383.411 120.88 377.891 123.28C374.771 124.66 371.351 125.35 367.631 125.35C362.411 125.35 357.851 123.34 353.951 119.32C350.111 115.24 348.191 109.42 348.191 101.86C348.191 94.24 350.051 87.55 353.771 81.79C357.491 75.97 362.411 72.31 368.531 70.81ZM439.558 72.07C443.098 72.07 445.618 73.18 447.118 75.4C448.678 77.56 449.458 80.53 449.458 84.31C449.458 88.03 448.858 93.28 447.658 100.06C446.518 106.84 445.948 111.79 445.948 114.91C445.948 117.97 446.338 120.22 447.118 121.66C447.898 123.04 449.218 124.24 451.078 125.26C450.298 125.32 449.188 125.35 447.748 125.35C442.708 125.35 439.108 124.57 436.948 123.01C434.848 121.45 433.798 118.72 433.798 114.82C433.798 112.6 434.398 108.28 435.598 101.86C436.798 95.38 437.398 90.55 437.398 87.37C437.398 83.41 436.198 81.43 433.798 81.43C432.418 81.43 430.858 82.24 429.118 83.86C427.378 85.48 425.698 87.7 424.078 90.52C422.458 93.28 421.108 96.85 420.028 101.23C418.948 105.61 418.408 109.99 418.408 114.37C418.408 118.69 418.588 121.9 418.948 124C417.028 124.12 415.768 124.18 415.168 124.18C411.748 124.18 409.288 123.58 407.788 122.38C406.288 121.18 405.538 119.2 405.538 116.44C405.538 115.24 406.168 110.62 407.428 102.58C408.688 94.54 409.318 88.15 409.318 83.41C409.318 78.61 408.808 74.2 407.788 70.18C412.168 71.56 415.228 73.54 416.968 76.12C418.708 78.64 419.578 81.55 419.578 84.85C419.578 88.09 419.218 91.87 418.498 96.19C420.478 89.47 423.598 83.77 427.858 79.09C432.118 74.41 436.018 72.07 439.558 72.07ZM481.766 101.86C478.886 101.86 476.066 101.53 473.306 100.87C473.246 101.47 473.216 102.4 473.216 103.66C473.216 108.64 474.146 112.39 476.006 114.91C477.866 117.43 480.086 118.69 482.666 118.69C485.246 118.69 487.706 117.91 490.046 116.35C492.386 114.79 494.426 112.63 496.166 109.87C498.326 110.35 499.406 111.46 499.406 113.2C494.126 121.3 487.316 125.35 478.976 125.35C473.936 125.35 469.526 123.43 465.746 119.59C461.966 115.69 460.076 110.29 460.076 103.39C460.076 98.23 461.066 93.34 463.046 88.72C465.026 84.04 468.176 80.11 472.496 76.93C476.816 73.69 481.586 72.07 486.806 72.07C492.086 72.07 495.956 73.27 498.416 75.67C500.876 78.07 502.106 81.22 502.106 85.12C502.106 90.76 500.126 94.96 496.166 97.72C492.266 100.48 487.466 101.86 481.766 101.86ZM485.546 77.65C482.486 77.65 479.906 79.54 477.806 83.32C475.706 87.1 474.326 91.69 473.666 97.09H475.016C480.236 97.09 484.076 95.74 486.536 93.04C489.056 90.34 490.316 87.1 490.316 83.32C490.316 81.76 489.896 80.44 489.056 79.36C488.276 78.22 487.106 77.65 485.546 77.65ZM551.478 78.28C551.478 80.38 550.578 83.23 548.778 86.83C546.978 90.37 544.788 94.3 542.208 98.62C539.628 102.94 537.048 107.56 534.468 112.48C531.888 117.34 529.698 122.83 527.898 128.95C526.098 135.13 525.198 141.16 525.198 147.04C525.198 149.74 525.408 152.32 525.828 154.78C520.968 153.88 517.668 152.53 515.928 150.73C514.188 148.99 513.318 146.92 513.318 144.52C513.318 141.22 515.718 134.71 520.518 124.99C519.618 121.27 518.507 115.45 517.188 107.53C515.868 99.55 514.518 92.62 513.138 86.74C511.818 80.86 510.288 76.48 508.548 73.6C511.848 72.04 514.488 71.26 516.468 71.26C518.448 71.26 519.948 71.71 520.968 72.61C521.988 73.51 522.828 75.31 523.488 78.01C524.208 80.65 524.718 82.84 525.018 84.58C525.858 90.34 526.278 93.55 526.278 94.21C526.278 94.87 526.518 97.57 526.998 102.31C527.478 106.99 527.838 110.08 528.078 111.58C538.758 90.88 544.098 77.05 544.098 70.09C549.018 72.61 551.478 75.34 551.478 78.28Z" fill="#FCFDFF"/>
</g>
<defs>
<filter id="filter0_d" x="40.4062" y="40.6599" width="515.071" height="122.12" filterUnits="userSpaceOnUse" color-interpolation-filters="sRGB">
<feFlood flood-opacity="0" result="BackgroundImageFix"/>
<feColorMatrix in="SourceAlpha" type="matrix" values="0 0 0 0 0 0 0 0 0 0 0 0 0 0 0 0 0 0 127 0"/>
<feOffset dy="4"/>
<feGaussianBlur stdDeviation="2"/>
<feColorMatrix type="matrix" values="0 0 0 0 0 0 0 0 0 0 0 0 0 0 0 0 0 0 0.25 0"/>
<feBlend mode="normal" in2="BackgroundImageFix" result="effect1_dropShadow"/>
<feBlend mode="normal" in="SourceGraphic" in2="effect1_dropShadow" result="shape"/>
</filter>
</defs>
</svg>
