<svg width="77" height="47" viewBox="0 0 77 47" fill="none" xmlns="http://www.w3.org/2000/svg">
<path d="M40.3163 5.65002C36.4106 5.65002 33.3869 8.62369 33.3869 12.43V39.1929C33.3869 42.8803 36.4106 45.9729 40.3163 45.9729C44.2219 45.9729 47.2456 42.9992 47.2456 39.1929L47.2456 12.43C47.2456 8.62369 44.2219 5.65002 40.3163 5.65002Z" fill="#AA5145"/>
<path d="M47.6235 12.43C47.6235 8.74264 44.4738 5.65002 40.4422 5.65002C36.5366 5.65002 33.2609 8.62369 33.2609 12.43V39.1929C33.2609 42.8803 36.4106 45.9729 40.4422 45.9729" fill="#AA5145"/>
<path d="M35.4028 7.07736C32.6311 9.69419 32.6311 13.9763 35.4028 16.7121L64.6322 44.1887C67.4039 46.8056 71.9395 46.8056 74.7112 44.1887C77.483 41.5719 77.483 37.2898 74.7112 34.5541L45.6079 7.07736C42.7102 4.46054 38.1746 4.46054 35.4028 7.07736Z" fill="#EB5757"/>
<path d="M35.403 7.07727C32.6313 9.6941 32.6313 13.9762 35.403 16.712L64.6323 44.1887C67.4041 46.8056 71.9397 46.8056 74.7114 44.1887" fill="#EB5757"/>
<path d="M-0.00012207 1.48694L22.4258 5.65005L18.5202 9.33739L45.6077 34.9108C48.3795 37.5276 48.3795 41.8097 45.6077 44.5454C42.836 47.1623 38.3004 47.1623 35.4026 44.5454L8.31512 18.972L4.40948 22.6594L-0.00012207 1.48694Z" fill="#EB5757"/>
<path d="M45.6079 43.0586C42.8362 45.6754 38.3006 45.6754 35.4028 43.0586L8.3153 17.4851L4.40966 21.1725L6.10352e-05 0" fill="#EB5757"/>
</svg>
