<svg width="608" height="608" viewBox="0 0 608 608" fill="none" xmlns="http://www.w3.org/2000/svg">
<g opacity="0.2">
<path opacity="0.2" d="M53.9357 44.6194C58.81 44.6194 62.7615 40.6679 62.7615 35.7936C62.7615 30.9192 58.81 26.9678 53.9357 26.9678C49.0613 26.9678 45.1099 30.9192 45.1099 35.7936C45.1099 40.6679 49.0613 44.6194 53.9357 44.6194Z" fill="white"/>
<path opacity="0.2" d="M109.832 44.6194C114.707 44.6194 118.658 40.6679 118.658 35.7936C118.658 30.9192 114.707 26.9678 109.832 26.9678C104.958 26.9678 101.006 30.9192 101.006 35.7936C101.006 40.6679 104.958 44.6194 109.832 44.6194Z" fill="white"/>
<path opacity="0.2" d="M164.749 44.6194C169.623 44.6194 173.574 40.6679 173.574 35.7936C173.574 30.9192 169.623 26.9678 164.749 26.9678C159.874 26.9678 155.923 30.9192 155.923 35.7936C155.923 40.6679 159.874 44.6194 164.749 44.6194Z" fill="white"/>
<path opacity="0.2" d="M220.645 44.6194C225.519 44.6194 229.471 40.6679 229.471 35.7936C229.471 30.9192 225.519 26.9678 220.645 26.9678C215.771 26.9678 211.819 30.9192 211.819 35.7936C211.819 40.6679 215.771 44.6194 220.645 44.6194Z" fill="white"/>
<path opacity="0.2" d="M276.542 44.6194C281.416 44.6194 285.368 40.6679 285.368 35.7936C285.368 30.9192 281.416 26.9678 276.542 26.9678C271.668 26.9678 267.716 30.9192 267.716 35.7936C267.716 40.6679 271.668 44.6194 276.542 44.6194Z" fill="white"/>
<path opacity="0.2" d="M331.458 44.6194C336.332 44.6194 340.284 40.6679 340.284 35.7936C340.284 30.9192 336.332 26.9678 331.458 26.9678C326.584 26.9678 322.632 30.9192 322.632 35.7936C322.632 40.6679 326.584 44.6194 331.458 44.6194Z" fill="white"/>
<path opacity="0.2" d="M387.355 44.6194C392.229 44.6194 396.181 40.6679 396.181 35.7936C396.181 30.9192 392.229 26.9678 387.355 26.9678C382.481 26.9678 378.529 30.9192 378.529 35.7936C378.529 40.6679 382.481 44.6194 387.355 44.6194Z" fill="white"/>
<path opacity="0.2" d="M443.252 44.6194C448.126 44.6194 452.077 40.6679 452.077 35.7936C452.077 30.9192 448.126 26.9678 443.252 26.9678C438.377 26.9678 434.426 30.9192 434.426 35.7936C434.426 40.6679 438.377 44.6194 443.252 44.6194Z" fill="white"/>
<path opacity="0.2" d="M498.168 44.6194C503.042 44.6194 506.994 40.6679 506.994 35.7936C506.994 30.9192 503.042 26.9678 498.168 26.9678C493.294 26.9678 489.342 30.9192 489.342 35.7936C489.342 40.6679 493.294 44.6194 498.168 44.6194Z" fill="white"/>
<path opacity="0.2" d="M554.065 44.6194C558.939 44.6194 562.89 40.6679 562.89 35.7936C562.89 30.9192 558.939 26.9678 554.065 26.9678C549.19 26.9678 545.239 30.9192 545.239 35.7936C545.239 40.6679 549.19 44.6194 554.065 44.6194Z" fill="white"/>
<path opacity="0.2" d="M53.9357 96.5935C58.81 96.5935 62.7615 92.6421 62.7615 87.7677C62.7615 82.8933 58.81 78.9419 53.9357 78.9419C49.0613 78.9419 45.1099 82.8933 45.1099 87.7677C45.1099 92.6421 49.0613 96.5935 53.9357 96.5935Z" fill="white"/>
<path opacity="0.2" d="M109.832 96.5935C114.707 96.5935 118.658 92.6421 118.658 87.7677C118.658 82.8933 114.707 78.9419 109.832 78.9419C104.958 78.9419 101.006 82.8933 101.006 87.7677C101.006 92.6421 104.958 96.5935 109.832 96.5935Z" fill="white"/>
<path opacity="0.2" d="M164.749 96.5935C169.623 96.5935 173.574 92.6421 173.574 87.7677C173.574 82.8933 169.623 78.9419 164.749 78.9419C159.874 78.9419 155.923 82.8933 155.923 87.7677C155.923 92.6421 159.874 96.5935 164.749 96.5935Z" fill="white"/>
<path opacity="0.2" d="M220.645 96.5935C225.519 96.5935 229.471 92.6421 229.471 87.7677C229.471 82.8933 225.519 78.9419 220.645 78.9419C215.771 78.9419 211.819 82.8933 211.819 87.7677C211.819 92.6421 215.771 96.5935 220.645 96.5935Z" fill="white"/>
<path opacity="0.2" d="M276.542 96.5935C281.416 96.5935 285.368 92.6421 285.368 87.7677C285.368 82.8933 281.416 78.9419 276.542 78.9419C271.668 78.9419 267.716 82.8933 267.716 87.7677C267.716 92.6421 271.668 96.5935 276.542 96.5935Z" fill="white"/>
<path opacity="0.2" d="M331.458 96.5935C336.332 96.5935 340.284 92.6421 340.284 87.7677C340.284 82.8933 336.332 78.9419 331.458 78.9419C326.584 78.9419 322.632 82.8933 322.632 87.7677C322.632 92.6421 326.584 96.5935 331.458 96.5935Z" fill="white"/>
<path opacity="0.2" d="M387.355 96.5935C392.229 96.5935 396.181 92.6421 396.181 87.7677C396.181 82.8933 392.229 78.9419 387.355 78.9419C382.481 78.9419 378.529 82.8933 378.529 87.7677C378.529 92.6421 382.481 96.5935 387.355 96.5935Z" fill="white"/>
<path opacity="0.2" d="M443.252 96.5935C448.126 96.5935 452.077 92.6421 452.077 87.7677C452.077 82.8933 448.126 78.9419 443.252 78.9419C438.377 78.9419 434.426 82.8933 434.426 87.7677C434.426 92.6421 438.377 96.5935 443.252 96.5935Z" fill="white"/>
<path opacity="0.2" d="M498.168 96.5935C503.042 96.5935 506.994 92.6421 506.994 87.7677C506.994 82.8933 503.042 78.9419 498.168 78.9419C493.294 78.9419 489.342 82.8933 489.342 87.7677C489.342 92.6421 493.294 96.5935 498.168 96.5935Z" fill="white"/>
<path opacity="0.2" d="M554.065 96.5935C558.939 96.5935 562.89 92.6421 562.89 87.7677C562.89 82.8933 558.939 78.9419 554.065 78.9419C549.19 78.9419 545.239 82.8933 545.239 87.7677C545.239 92.6421 549.19 96.5935 554.065 96.5935Z" fill="white"/>
<path opacity="0.2" d="M53.9357 147.587C58.81 147.587 62.7615 143.636 62.7615 138.761C62.7615 133.887 58.81 129.936 53.9357 129.936C49.0613 129.936 45.1099 133.887 45.1099 138.761C45.1099 143.636 49.0613 147.587 53.9357 147.587Z" fill="white"/>
<path opacity="0.2" d="M109.832 147.587C114.707 147.587 118.658 143.636 118.658 138.761C118.658 133.887 114.707 129.936 109.832 129.936C104.958 129.936 101.006 133.887 101.006 138.761C101.006 143.636 104.958 147.587 109.832 147.587Z" fill="white"/>
<path opacity="0.2" d="M164.749 147.587C169.623 147.587 173.574 143.636 173.574 138.761C173.574 133.887 169.623 129.936 164.749 129.936C159.874 129.936 155.923 133.887 155.923 138.761C155.923 143.636 159.874 147.587 164.749 147.587Z" fill="white"/>
<path opacity="0.2" d="M220.645 147.587C225.519 147.587 229.471 143.636 229.471 138.761C229.471 133.887 225.519 129.936 220.645 129.936C215.771 129.936 211.819 133.887 211.819 138.761C211.819 143.636 215.771 147.587 220.645 147.587Z" fill="white"/>
<path opacity="0.2" d="M276.542 147.587C281.416 147.587 285.368 143.636 285.368 138.761C285.368 133.887 281.416 129.936 276.542 129.936C271.668 129.936 267.716 133.887 267.716 138.761C267.716 143.636 271.668 147.587 276.542 147.587Z" fill="white"/>
<path opacity="0.2" d="M331.458 147.587C336.332 147.587 340.284 143.636 340.284 138.761C340.284 133.887 336.332 129.936 331.458 129.936C326.584 129.936 322.632 133.887 322.632 138.761C322.632 143.636 326.584 147.587 331.458 147.587Z" fill="white"/>
<path opacity="0.2" d="M387.355 147.587C392.229 147.587 396.181 143.636 396.181 138.761C396.181 133.887 392.229 129.936 387.355 129.936C382.481 129.936 378.529 133.887 378.529 138.761C378.529 143.636 382.481 147.587 387.355 147.587Z" fill="white"/>
<path opacity="0.2" d="M443.252 147.587C448.126 147.587 452.077 143.636 452.077 138.761C452.077 133.887 448.126 129.936 443.252 129.936C438.377 129.936 434.426 133.887 434.426 138.761C434.426 143.636 438.377 147.587 443.252 147.587Z" fill="white"/>
<path opacity="0.2" d="M498.168 147.587C503.042 147.587 506.994 143.636 506.994 138.761C506.994 133.887 503.042 129.936 498.168 129.936C493.294 129.936 489.342 133.887 489.342 138.761C489.342 143.636 493.294 147.587 498.168 147.587Z" fill="white"/>
<path opacity="0.2" d="M554.065 147.587C558.939 147.587 562.89 143.636 562.89 138.761C562.89 133.887 558.939 129.936 554.065 129.936C549.19 129.936 545.239 133.887 545.239 138.761C545.239 143.636 549.19 147.587 554.065 147.587Z" fill="white"/>
<path opacity="0.2" d="M53.9357 199.561C58.81 199.561 62.7615 195.61 62.7615 190.735C62.7615 185.861 58.81 181.91 53.9357 181.91C49.0613 181.91 45.1099 185.861 45.1099 190.735C45.1099 195.61 49.0613 199.561 53.9357 199.561Z" fill="white"/>
<path opacity="0.2" d="M109.832 199.561C114.707 199.561 118.658 195.61 118.658 190.735C118.658 185.861 114.707 181.91 109.832 181.91C104.958 181.91 101.006 185.861 101.006 190.735C101.006 195.61 104.958 199.561 109.832 199.561Z" fill="white"/>
<path opacity="0.2" d="M164.749 199.561C169.623 199.561 173.574 195.61 173.574 190.735C173.574 185.861 169.623 181.91 164.749 181.91C159.874 181.91 155.923 185.861 155.923 190.735C155.923 195.61 159.874 199.561 164.749 199.561Z" fill="white"/>
<path opacity="0.2" d="M220.645 199.561C225.519 199.561 229.471 195.61 229.471 190.735C229.471 185.861 225.519 181.91 220.645 181.91C215.771 181.91 211.819 185.861 211.819 190.735C211.819 195.61 215.771 199.561 220.645 199.561Z" fill="white"/>
<path opacity="0.2" d="M276.542 199.561C281.416 199.561 285.368 195.61 285.368 190.735C285.368 185.861 281.416 181.91 276.542 181.91C271.668 181.91 267.716 185.861 267.716 190.735C267.716 195.61 271.668 199.561 276.542 199.561Z" fill="white"/>
<path opacity="0.2" d="M331.458 199.561C336.332 199.561 340.284 195.61 340.284 190.735C340.284 185.861 336.332 181.91 331.458 181.91C326.584 181.91 322.632 185.861 322.632 190.735C322.632 195.61 326.584 199.561 331.458 199.561Z" fill="white"/>
<path opacity="0.2" d="M387.355 199.561C392.229 199.561 396.181 195.61 396.181 190.735C396.181 185.861 392.229 181.91 387.355 181.91C382.481 181.91 378.529 185.861 378.529 190.735C378.529 195.61 382.481 199.561 387.355 199.561Z" fill="white"/>
<path opacity="0.2" d="M443.252 199.561C448.126 199.561 452.077 195.61 452.077 190.735C452.077 185.861 448.126 181.91 443.252 181.91C438.377 181.91 434.426 185.861 434.426 190.735C434.426 195.61 438.377 199.561 443.252 199.561Z" fill="white"/>
<path opacity="0.2" d="M498.168 199.561C503.042 199.561 506.994 195.61 506.994 190.735C506.994 185.861 503.042 181.91 498.168 181.91C493.294 181.91 489.342 185.861 489.342 190.735C489.342 195.61 493.294 199.561 498.168 199.561Z" fill="white"/>
<path opacity="0.2" d="M554.065 199.561C558.939 199.561 562.89 195.61 562.89 190.735C562.89 185.861 558.939 181.91 554.065 181.91C549.19 181.91 545.239 185.861 545.239 190.735C545.239 195.61 549.19 199.561 554.065 199.561Z" fill="white"/>
<path opacity="0.2" d="M53.9357 250.555C58.81 250.555 62.7615 246.603 62.7615 241.729C62.7615 236.855 58.81 232.903 53.9357 232.903C49.0613 232.903 45.1099 236.855 45.1099 241.729C45.1099 246.603 49.0613 250.555 53.9357 250.555Z" fill="white"/>
<path opacity="0.2" d="M109.832 250.555C114.707 250.555 118.658 246.603 118.658 241.729C118.658 236.855 114.707 232.903 109.832 232.903C104.958 232.903 101.006 236.855 101.006 241.729C101.006 246.603 104.958 250.555 109.832 250.555Z" fill="white"/>
<path opacity="0.2" d="M164.749 250.555C169.623 250.555 173.574 246.603 173.574 241.729C173.574 236.855 169.623 232.903 164.749 232.903C159.874 232.903 155.923 236.855 155.923 241.729C155.923 246.603 159.874 250.555 164.749 250.555Z" fill="white"/>
<path opacity="0.2" d="M220.645 250.555C225.519 250.555 229.471 246.603 229.471 241.729C229.471 236.855 225.519 232.903 220.645 232.903C215.771 232.903 211.819 236.855 211.819 241.729C211.819 246.603 215.771 250.555 220.645 250.555Z" fill="white"/>
<path opacity="0.2" d="M276.542 250.555C281.416 250.555 285.368 246.603 285.368 241.729C285.368 236.855 281.416 232.903 276.542 232.903C271.668 232.903 267.716 236.855 267.716 241.729C267.716 246.603 271.668 250.555 276.542 250.555Z" fill="white"/>
<path opacity="0.2" d="M331.458 250.555C336.332 250.555 340.284 246.603 340.284 241.729C340.284 236.855 336.332 232.903 331.458 232.903C326.584 232.903 322.632 236.855 322.632 241.729C322.632 246.603 326.584 250.555 331.458 250.555Z" fill="white"/>
<path opacity="0.2" d="M387.355 250.555C392.229 250.555 396.181 246.603 396.181 241.729C396.181 236.855 392.229 232.903 387.355 232.903C382.481 232.903 378.529 236.855 378.529 241.729C378.529 246.603 382.481 250.555 387.355 250.555Z" fill="white"/>
<path opacity="0.2" d="M443.252 250.555C448.126 250.555 452.077 246.603 452.077 241.729C452.077 236.855 448.126 232.903 443.252 232.903C438.377 232.903 434.426 236.855 434.426 241.729C434.426 246.603 438.377 250.555 443.252 250.555Z" fill="white"/>
<path opacity="0.2" d="M498.168 250.555C503.042 250.555 506.994 246.603 506.994 241.729C506.994 236.855 503.042 232.903 498.168 232.903C493.294 232.903 489.342 236.855 489.342 241.729C489.342 246.603 493.294 250.555 498.168 250.555Z" fill="white"/>
<path opacity="0.2" d="M554.065 250.555C558.939 250.555 562.89 246.603 562.89 241.729C562.89 236.855 558.939 232.903 554.065 232.903C549.19 232.903 545.239 236.855 545.239 241.729C545.239 246.603 549.19 250.555 554.065 250.555Z" fill="white"/>
<path opacity="0.2" d="M53.9357 302.529C58.81 302.529 62.7615 298.578 62.7615 293.703C62.7615 288.829 58.81 284.877 53.9357 284.877C49.0613 284.877 45.1099 288.829 45.1099 293.703C45.1099 298.578 49.0613 302.529 53.9357 302.529Z" fill="white"/>
<path opacity="0.2" d="M109.832 302.529C114.707 302.529 118.658 298.578 118.658 293.703C118.658 288.829 114.707 284.877 109.832 284.877C104.958 284.877 101.006 288.829 101.006 293.703C101.006 298.578 104.958 302.529 109.832 302.529Z" fill="white"/>
<path opacity="0.2" d="M164.749 302.529C169.623 302.529 173.574 298.578 173.574 293.703C173.574 288.829 169.623 284.877 164.749 284.877C159.874 284.877 155.923 288.829 155.923 293.703C155.923 298.578 159.874 302.529 164.749 302.529Z" fill="white"/>
<path opacity="0.2" d="M220.645 302.529C225.519 302.529 229.471 298.578 229.471 293.703C229.471 288.829 225.519 284.877 220.645 284.877C215.771 284.877 211.819 288.829 211.819 293.703C211.819 298.578 215.771 302.529 220.645 302.529Z" fill="white"/>
<path opacity="0.2" d="M276.542 302.529C281.416 302.529 285.368 298.578 285.368 293.703C285.368 288.829 281.416 284.877 276.542 284.877C271.668 284.877 267.716 288.829 267.716 293.703C267.716 298.578 271.668 302.529 276.542 302.529Z" fill="white"/>
<path opacity="0.2" d="M331.458 302.529C336.332 302.529 340.284 298.578 340.284 293.703C340.284 288.829 336.332 284.877 331.458 284.877C326.584 284.877 322.632 288.829 322.632 293.703C322.632 298.578 326.584 302.529 331.458 302.529Z" fill="white"/>
<path opacity="0.2" d="M387.355 302.529C392.229 302.529 396.181 298.578 396.181 293.703C396.181 288.829 392.229 284.877 387.355 284.877C382.481 284.877 378.529 288.829 378.529 293.703C378.529 298.578 382.481 302.529 387.355 302.529Z" fill="white"/>
<path opacity="0.2" d="M443.252 302.529C448.126 302.529 452.077 298.578 452.077 293.703C452.077 288.829 448.126 284.877 443.252 284.877C438.377 284.877 434.426 288.829 434.426 293.703C434.426 298.578 438.377 302.529 443.252 302.529Z" fill="white"/>
<path opacity="0.2" d="M498.168 302.529C503.042 302.529 506.994 298.578 506.994 293.703C506.994 288.829 503.042 284.877 498.168 284.877C493.294 284.877 489.342 288.829 489.342 293.703C489.342 298.578 493.294 302.529 498.168 302.529Z" fill="white"/>
<path opacity="0.2" d="M554.065 302.529C558.939 302.529 562.89 298.578 562.89 293.703C562.89 288.829 558.939 284.877 554.065 284.877C549.19 284.877 545.239 288.829 545.239 293.703C545.239 298.578 549.19 302.529 554.065 302.529Z" fill="white"/>
<path opacity="0.2" d="M53.9357 354.503C58.81 354.503 62.7615 350.552 62.7615 345.677C62.7615 340.803 58.81 336.852 53.9357 336.852C49.0613 336.852 45.1099 340.803 45.1099 345.677C45.1099 350.552 49.0613 354.503 53.9357 354.503Z" fill="white"/>
<path opacity="0.2" d="M109.832 354.503C114.707 354.503 118.658 350.552 118.658 345.677C118.658 340.803 114.707 336.852 109.832 336.852C104.958 336.852 101.006 340.803 101.006 345.677C101.006 350.552 104.958 354.503 109.832 354.503Z" fill="white"/>
<path opacity="0.2" d="M164.749 354.503C169.623 354.503 173.574 350.552 173.574 345.677C173.574 340.803 169.623 336.852 164.749 336.852C159.874 336.852 155.923 340.803 155.923 345.677C155.923 350.552 159.874 354.503 164.749 354.503Z" fill="white"/>
<path opacity="0.2" d="M220.645 354.503C225.519 354.503 229.471 350.552 229.471 345.677C229.471 340.803 225.519 336.852 220.645 336.852C215.771 336.852 211.819 340.803 211.819 345.677C211.819 350.552 215.771 354.503 220.645 354.503Z" fill="white"/>
<path opacity="0.2" d="M276.542 354.503C281.416 354.503 285.368 350.552 285.368 345.677C285.368 340.803 281.416 336.852 276.542 336.852C271.668 336.852 267.716 340.803 267.716 345.677C267.716 350.552 271.668 354.503 276.542 354.503Z" fill="white"/>
<path opacity="0.2" d="M331.458 354.503C336.332 354.503 340.284 350.552 340.284 345.677C340.284 340.803 336.332 336.852 331.458 336.852C326.584 336.852 322.632 340.803 322.632 345.677C322.632 350.552 326.584 354.503 331.458 354.503Z" fill="white"/>
<path opacity="0.2" d="M387.355 354.503C392.229 354.503 396.181 350.552 396.181 345.677C396.181 340.803 392.229 336.852 387.355 336.852C382.481 336.852 378.529 340.803 378.529 345.677C378.529 350.552 382.481 354.503 387.355 354.503Z" fill="white"/>
<path opacity="0.2" d="M443.252 354.503C448.126 354.503 452.077 350.552 452.077 345.677C452.077 340.803 448.126 336.852 443.252 336.852C438.377 336.852 434.426 340.803 434.426 345.677C434.426 350.552 438.377 354.503 443.252 354.503Z" fill="white"/>
<path opacity="0.2" d="M498.168 354.503C503.042 354.503 506.994 350.552 506.994 345.677C506.994 340.803 503.042 336.852 498.168 336.852C493.294 336.852 489.342 340.803 489.342 345.677C489.342 350.552 493.294 354.503 498.168 354.503Z" fill="white"/>
<path opacity="0.2" d="M554.065 354.503C558.939 354.503 562.89 350.552 562.89 345.677C562.89 340.803 558.939 336.852 554.065 336.852C549.19 336.852 545.239 340.803 545.239 345.677C545.239 350.552 549.19 354.503 554.065 354.503Z" fill="white"/>
<path opacity="0.2" d="M53.9357 405.497C58.81 405.497 62.7615 401.545 62.7615 396.671C62.7615 391.797 58.81 387.845 53.9357 387.845C49.0613 387.845 45.1099 391.797 45.1099 396.671C45.1099 401.545 49.0613 405.497 53.9357 405.497Z" fill="white"/>
<path opacity="0.2" d="M109.832 405.497C114.707 405.497 118.658 401.545 118.658 396.671C118.658 391.797 114.707 387.845 109.832 387.845C104.958 387.845 101.006 391.797 101.006 396.671C101.006 401.545 104.958 405.497 109.832 405.497Z" fill="white"/>
<path opacity="0.2" d="M164.749 405.497C169.623 405.497 173.574 401.545 173.574 396.671C173.574 391.797 169.623 387.845 164.749 387.845C159.874 387.845 155.923 391.797 155.923 396.671C155.923 401.545 159.874 405.497 164.749 405.497Z" fill="white"/>
<path opacity="0.2" d="M220.645 405.497C225.519 405.497 229.471 401.545 229.471 396.671C229.471 391.797 225.519 387.845 220.645 387.845C215.771 387.845 211.819 391.797 211.819 396.671C211.819 401.545 215.771 405.497 220.645 405.497Z" fill="white"/>
<path opacity="0.2" d="M276.542 405.497C281.416 405.497 285.368 401.545 285.368 396.671C285.368 391.797 281.416 387.845 276.542 387.845C271.668 387.845 267.716 391.797 267.716 396.671C267.716 401.545 271.668 405.497 276.542 405.497Z" fill="white"/>
<path opacity="0.2" d="M331.458 405.497C336.332 405.497 340.284 401.545 340.284 396.671C340.284 391.797 336.332 387.845 331.458 387.845C326.584 387.845 322.632 391.797 322.632 396.671C322.632 401.545 326.584 405.497 331.458 405.497Z" fill="white"/>
<path opacity="0.2" d="M387.355 405.497C392.229 405.497 396.181 401.545 396.181 396.671C396.181 391.797 392.229 387.845 387.355 387.845C382.481 387.845 378.529 391.797 378.529 396.671C378.529 401.545 382.481 405.497 387.355 405.497Z" fill="white"/>
<path opacity="0.2" d="M443.252 405.497C448.126 405.497 452.077 401.545 452.077 396.671C452.077 391.797 448.126 387.845 443.252 387.845C438.377 387.845 434.426 391.797 434.426 396.671C434.426 401.545 438.377 405.497 443.252 405.497Z" fill="white"/>
<path opacity="0.2" d="M498.168 405.497C503.042 405.497 506.994 401.545 506.994 396.671C506.994 391.797 503.042 387.845 498.168 387.845C493.294 387.845 489.342 391.797 489.342 396.671C489.342 401.545 493.294 405.497 498.168 405.497Z" fill="white"/>
<path opacity="0.2" d="M554.065 405.497C558.939 405.497 562.89 401.545 562.89 396.671C562.89 391.797 558.939 387.845 554.065 387.845C549.19 387.845 545.239 391.797 545.239 396.671C545.239 401.545 549.19 405.497 554.065 405.497Z" fill="white"/>
<path opacity="0.2" d="M53.9357 457.471C58.81 457.471 62.7615 453.52 62.7615 448.645C62.7615 443.771 58.81 439.819 53.9357 439.819C49.0613 439.819 45.1099 443.771 45.1099 448.645C45.1099 453.52 49.0613 457.471 53.9357 457.471Z" fill="white"/>
<path opacity="0.2" d="M109.832 457.471C114.707 457.471 118.658 453.52 118.658 448.645C118.658 443.771 114.707 439.819 109.832 439.819C104.958 439.819 101.006 443.771 101.006 448.645C101.006 453.52 104.958 457.471 109.832 457.471Z" fill="white"/>
<path opacity="0.2" d="M164.749 457.471C169.623 457.471 173.574 453.52 173.574 448.645C173.574 443.771 169.623 439.819 164.749 439.819C159.874 439.819 155.923 443.771 155.923 448.645C155.923 453.52 159.874 457.471 164.749 457.471Z" fill="white"/>
<path opacity="0.2" d="M220.645 457.471C225.519 457.471 229.471 453.52 229.471 448.645C229.471 443.771 225.519 439.819 220.645 439.819C215.771 439.819 211.819 443.771 211.819 448.645C211.819 453.52 215.771 457.471 220.645 457.471Z" fill="white"/>
<path opacity="0.2" d="M276.542 457.471C281.416 457.471 285.368 453.52 285.368 448.645C285.368 443.771 281.416 439.819 276.542 439.819C271.668 439.819 267.716 443.771 267.716 448.645C267.716 453.52 271.668 457.471 276.542 457.471Z" fill="white"/>
<path opacity="0.2" d="M331.458 457.471C336.332 457.471 340.284 453.52 340.284 448.645C340.284 443.771 336.332 439.819 331.458 439.819C326.584 439.819 322.632 443.771 322.632 448.645C322.632 453.52 326.584 457.471 331.458 457.471Z" fill="white"/>
<path opacity="0.2" d="M387.355 457.471C392.229 457.471 396.181 453.52 396.181 448.645C396.181 443.771 392.229 439.819 387.355 439.819C382.481 439.819 378.529 443.771 378.529 448.645C378.529 453.52 382.481 457.471 387.355 457.471Z" fill="white"/>
<path opacity="0.2" d="M443.252 457.471C448.126 457.471 452.077 453.52 452.077 448.645C452.077 443.771 448.126 439.819 443.252 439.819C438.377 439.819 434.426 443.771 434.426 448.645C434.426 453.52 438.377 457.471 443.252 457.471Z" fill="white"/>
<path opacity="0.2" d="M498.168 457.471C503.042 457.471 506.994 453.52 506.994 448.645C506.994 443.771 503.042 439.819 498.168 439.819C493.294 439.819 489.342 443.771 489.342 448.645C489.342 453.52 493.294 457.471 498.168 457.471Z" fill="white"/>
<path opacity="0.2" d="M554.065 457.471C558.939 457.471 562.89 453.52 562.89 448.645C562.89 443.771 558.939 439.819 554.065 439.819C549.19 439.819 545.239 443.771 545.239 448.645C545.239 453.52 549.19 457.471 554.065 457.471Z" fill="white"/>
<path opacity="0.2" d="M53.9357 508.465C58.81 508.465 62.7615 504.513 62.7615 499.639C62.7615 494.764 58.81 490.813 53.9357 490.813C49.0613 490.813 45.1099 494.764 45.1099 499.639C45.1099 504.513 49.0613 508.465 53.9357 508.465Z" fill="white"/>
<path opacity="0.2" d="M109.832 508.465C114.707 508.465 118.658 504.513 118.658 499.639C118.658 494.764 114.707 490.813 109.832 490.813C104.958 490.813 101.006 494.764 101.006 499.639C101.006 504.513 104.958 508.465 109.832 508.465Z" fill="white"/>
<path opacity="0.2" d="M164.749 508.465C169.623 508.465 173.574 504.513 173.574 499.639C173.574 494.764 169.623 490.813 164.749 490.813C159.874 490.813 155.923 494.764 155.923 499.639C155.923 504.513 159.874 508.465 164.749 508.465Z" fill="white"/>
<path opacity="0.2" d="M220.645 508.465C225.519 508.465 229.471 504.513 229.471 499.639C229.471 494.764 225.519 490.813 220.645 490.813C215.771 490.813 211.819 494.764 211.819 499.639C211.819 504.513 215.771 508.465 220.645 508.465Z" fill="white"/>
<path opacity="0.2" d="M276.542 508.465C281.416 508.465 285.368 504.513 285.368 499.639C285.368 494.764 281.416 490.813 276.542 490.813C271.668 490.813 267.716 494.764 267.716 499.639C267.716 504.513 271.668 508.465 276.542 508.465Z" fill="white"/>
<path opacity="0.2" d="M331.458 508.465C336.332 508.465 340.284 504.513 340.284 499.639C340.284 494.764 336.332 490.813 331.458 490.813C326.584 490.813 322.632 494.764 322.632 499.639C322.632 504.513 326.584 508.465 331.458 508.465Z" fill="white"/>
<path opacity="0.2" d="M387.355 508.465C392.229 508.465 396.181 504.513 396.181 499.639C396.181 494.764 392.229 490.813 387.355 490.813C382.481 490.813 378.529 494.764 378.529 499.639C378.529 504.513 382.481 508.465 387.355 508.465Z" fill="white"/>
<path opacity="0.2" d="M443.252 508.465C448.126 508.465 452.077 504.513 452.077 499.639C452.077 494.764 448.126 490.813 443.252 490.813C438.377 490.813 434.426 494.764 434.426 499.639C434.426 504.513 438.377 508.465 443.252 508.465Z" fill="white"/>
<path opacity="0.2" d="M498.168 508.465C503.042 508.465 506.994 504.513 506.994 499.639C506.994 494.764 503.042 490.813 498.168 490.813C493.294 490.813 489.342 494.764 489.342 499.639C489.342 504.513 493.294 508.465 498.168 508.465Z" fill="white"/>
<path opacity="0.2" d="M554.065 508.465C558.939 508.465 562.89 504.513 562.89 499.639C562.89 494.764 558.939 490.813 554.065 490.813C549.19 490.813 545.239 494.764 545.239 499.639C545.239 504.513 549.19 508.465 554.065 508.465Z" fill="white"/>
</g>
<path d="M289.29 172.103C319.69 172.103 343.226 196.619 343.226 227.019V443.742C343.226 474.142 319.69 498.658 289.29 498.658C258.89 498.658 235.355 474.142 235.355 443.742V227.019C235.355 196.619 258.89 172.103 289.29 172.103Z" fill="#2D9CDB"/>
<path d="M233.394 227.019C233.394 196.619 257.91 172.103 288.31 172.103C318.71 172.103 343.226 196.619 343.226 227.019V443.742C343.226 474.142 318.71 498.658 288.31 498.658" fill="#2F80ED"/>
<path d="M327.536 182.89C349.11 204.465 349.11 238.787 327.536 260.361L103.948 484.929C82.3743 506.503 48.0517 506.503 26.4775 484.929C4.90333 463.355 4.90333 429.032 26.4775 407.458L250.065 183.871C270.658 162.297 305.961 162.297 327.536 182.89Z" fill="#2D9CDB"/>
<path d="M327.536 182.89C349.11 204.465 349.11 238.787 327.536 260.361L103.949 484.929C82.3743 506.503 48.0517 506.503 26.4775 484.929" fill="#2F80ED"/>
<path d="M598.194 138.761L426.581 172.103L456.981 202.503L249.084 409.419C227.51 430.993 227.51 465.316 249.084 486.89C270.658 508.464 304.981 508.464 326.555 486.89L533.471 279.974L563.871 310.374L598.194 138.761Z" fill="#2D9CDB"/>
<path d="M249.084 486.89C270.658 508.464 304.981 508.464 326.555 486.89L533.471 279.974L563.871 310.374L598.194 138.761" fill="#2F80ED"/>
</svg>
