<svg width="50" height="50" viewBox="0 0 50 50" fill="none" xmlns="http://www.w3.org/2000/svg">
<path d="M44.1435 0.013916H5.8835C2.65439 0.013916 0.0273438 2.64097 0.0273438 5.87007V13.6783H3.93145V5.87007C3.93145 4.7937 4.80713 3.91802 5.8835 3.91802H44.1436C45.2199 3.91802 46.0956 4.7937 46.0956 5.87007V44.1301C46.0956 45.2065 45.2199 46.0822 44.1436 46.0822H5.8835C4.80713 46.0822 3.93145 45.2065 3.93145 44.1301V36.3219H0.0273438V44.1301C0.0273438 47.3592 2.65439 49.9863 5.8835 49.9863H44.1436C47.3727 49.9863 49.9997 47.3592 49.9997 44.1301V5.87007C49.9996 2.64097 47.3726 0.013916 44.1435 0.013916Z" fill="white"/>
<path d="M35.5549 23.0479H7.47324L14.8909 15.6302L12.1304 12.8696L0 25L12.1304 37.1304L14.8909 34.3698L7.47324 26.9521H35.5549V23.0479Z" fill="white"/>
</svg>
