<svg width="77" height="47" viewBox="0 0 77 47" fill="none" xmlns="http://www.w3.org/2000/svg">
<path d="M36.4756 40.8615C40.3815 40.8615 43.4054 37.8876 43.4054 34.081V7.31589C43.4054 3.62825 40.3815 0.5354 36.4756 0.5354C32.5698 0.5354 29.5459 3.5093 29.5459 7.31589V34.081C29.5459 37.8876 32.5698 40.8615 36.4756 40.8615Z" fill="#6FCF97"/>
<path d="M29.168 34.081C29.168 37.7686 32.3179 40.8615 36.3497 40.8615C40.2556 40.8615 43.5314 37.8876 43.5314 34.081V7.31589C43.5314 3.62825 40.3816 0.5354 36.3497 0.5354" fill="#6FCF97"/>
<path d="M41.3895 39.4341C44.1614 36.817 44.1614 32.5346 41.3895 29.7986L12.1585 2.3196C9.38665 -0.29745 4.85082 -0.29745 2.07892 2.3196C-0.692974 4.93664 -0.692974 9.21908 2.07892 11.9551L31.1838 39.4341C34.0817 42.0511 38.6176 42.0511 41.3895 39.4341Z" fill="#27AE60"/>
<path d="M41.3896 39.4341C44.1615 36.817 44.1615 32.5346 41.3896 29.7986L12.1587 2.3196C9.38683 -0.29745 4.851 -0.29745 2.0791 2.3196" fill="#27AE60"/>
<path d="M76.7942 45.0252L54.367 40.8617L58.2729 37.174L31.1839 11.5983C28.412 8.98124 28.412 4.69879 31.1839 1.96279C33.9558 -0.654262 38.4916 -0.654262 41.3895 1.96279L68.4785 27.5385L72.3844 23.8508L76.7942 45.0252Z" fill="#27AE60"/>
<path d="M31.1841 3.44984C33.956 0.832802 38.4918 0.832802 41.3897 3.44984L68.4787 29.0254L72.3845 25.3378L76.7943 46.512" fill="#27AE60"/>
</svg>
