<svg width="50" height="50" viewBox="0 0 50 50" fill="none" xmlns="http://www.w3.org/2000/svg">
<path d="M47.7672 16.6187L48.0195 16.3664C48.793 15.593 49.2195 14.5641 49.2195 13.4703C49.2188 11.2125 47.3812 9.375 45.1227 9.375C44.0289 9.375 43 9.80078 42.2266 10.575L38.2812 14.5203V0.78125H0.78125V49.2188H28.4484L38.2812 39.3859V26.1047L45.8648 18.5211L46.1609 18.225C46.3266 18.0602 46.5461 17.9688 46.7805 17.9688C47.2633 17.9688 47.6562 18.3617 47.6562 18.8445C47.6562 19.0789 47.5648 19.2984 47.4 19.4641L40.8539 26.0102L41.9586 27.1148L48.5047 20.5687C48.9648 20.1086 49.2188 19.4961 49.2188 18.8445C49.2188 17.8516 48.6203 16.9992 47.7672 16.6187ZM28.9062 23.8953V10.1562H33.5938V19.2078L28.9062 23.8953ZM33.5938 8.59375H24.2188V5.46875H33.5938V8.59375ZM22.6562 8.59375H11.7188V5.46875H22.6562V8.59375ZM10.1562 8.59375H5.46875V5.46875H10.1562V8.59375ZM5.46875 10.1562H10.1562V25.7812H5.46875V10.1562ZM11.7188 10.1562H16.4062V25.7812H11.7188V10.1562ZM17.9688 10.1562H22.6562V25.7812H17.9688V10.1562ZM24.2188 10.1562H27.3438V25.4578L27.0203 25.7812H24.2188V10.1562ZM24.7711 31.3453C24.8305 30.9313 24.9578 30.5281 25.1437 30.1555L28.4391 33.4508C28.0656 33.6367 27.6633 33.7641 27.2492 33.8234L24.3586 34.2359L24.7711 31.3453ZM29.6875 32.4891L26.1047 28.9062L39.0625 15.9484L42.6453 19.5312L29.6875 32.4891ZM28.9062 46.5516V39.8438H35.6141L28.9062 46.5516ZM36.7188 38.2812H27.3438V47.6562H2.34375V2.34375H36.7188V16.0828L35.1562 17.6453V3.90625H3.90625V27.3438H25.4578L24.7711 28.0305C23.9398 28.8609 23.3906 29.9602 23.225 31.1234L22.5172 36.0766L27.4703 35.3687C28.6344 35.2031 29.7328 34.6531 30.5633 33.8227L36.7188 27.6672V38.2812ZM43.75 18.4266L40.1672 14.8438L43.3312 11.6797C43.8102 11.2016 44.4461 10.9375 45.1227 10.9375C46.5195 10.9375 47.6562 12.0742 47.6562 13.4711C47.6562 14.1477 47.393 14.7836 46.9141 15.2625L45.0563 17.1203L44.7602 17.4164L43.75 18.4266Z" fill="white"/>
<path d="M12.5 35.1562C12.9305 35.1562 13.2812 35.507 13.2812 35.9375H14.8438C14.8438 34.9203 14.1883 34.0609 13.2812 33.7375V32.0312H11.7188V33.5938H10.1562V35.9375C10.1562 37.2297 11.2078 38.2812 12.5 38.2812C12.9305 38.2812 13.2812 38.632 13.2812 39.0625V39.8438H12.5C12.0695 39.8438 11.7188 39.493 11.7188 39.0625H10.1562C10.1562 40.0797 10.8117 40.9391 11.7188 41.2625V42.9688H13.2812V41.4062H14.8438V39.0625C14.8438 37.7703 13.7922 36.7188 12.5 36.7188C12.0695 36.7188 11.7188 36.368 11.7188 35.9375V35.1562H12.5Z" fill="white"/>
<path d="M7.8125 38.2812C8.24397 38.2812 8.59375 37.9315 8.59375 37.5C8.59375 37.0685 8.24397 36.7188 7.8125 36.7188C7.38103 36.7188 7.03125 37.0685 7.03125 37.5C7.03125 37.9315 7.38103 38.2812 7.8125 38.2812Z" fill="white"/>
<path d="M17.1875 38.2812C17.619 38.2812 17.9688 37.9315 17.9688 37.5C17.9688 37.0685 17.619 36.7188 17.1875 36.7188C16.756 36.7188 16.4062 37.0685 16.4062 37.5C16.4062 37.9315 16.756 38.2812 17.1875 38.2812Z" fill="white"/>
<path d="M12.5 28.9062C7.76172 28.9062 3.90625 32.7617 3.90625 37.5C3.90625 42.2383 7.76172 46.0938 12.5 46.0938C17.2383 46.0938 21.0938 42.2383 21.0938 37.5C21.0938 32.7617 17.2383 28.9062 12.5 28.9062ZM12.5 44.5312C8.62344 44.5312 5.46875 41.3766 5.46875 37.5C5.46875 33.6234 8.62344 30.4688 12.5 30.4688C16.3766 30.4688 19.5312 33.6234 19.5312 37.5C19.5312 41.3766 16.3766 44.5312 12.5 44.5312Z" fill="white"/>
<path d="M24.2188 44.5312H25.7812V46.0938H24.2188V44.5312Z" fill="white"/>
<path d="M24.2188 41.4062H25.7812V42.9688H24.2188V41.4062Z" fill="white"/>
<path d="M24.2188 38.2812H25.7812V39.8438H24.2188V38.2812Z" fill="white"/>
</svg>
