<svg width="50" height="50" viewBox="0 0 50 50" fill="none" xmlns="http://www.w3.org/2000/svg">
<path d="M48.4375 22.6562H1.5625C1.3553 22.6562 1.15659 22.7386 1.01007 22.8851C0.86356 23.0316 0.78125 23.2303 0.78125 23.4375V48.4375C0.78125 48.6447 0.86356 48.8434 1.01007 48.9899C1.15659 49.1364 1.3553 49.2188 1.5625 49.2188H48.4375C48.6447 49.2188 48.8434 49.1364 48.9899 48.9899C49.1364 48.8434 49.2188 48.6447 49.2188 48.4375V23.4375C49.2188 23.2303 49.1364 23.0316 48.9899 22.8851C48.8434 22.7386 48.6447 22.6562 48.4375 22.6562ZM47.6562 47.6562H2.34375V24.2188H47.6562V47.6562Z" fill="white"/>
<path d="M25 39.8438C24.5856 39.8438 24.1882 39.6791 23.8951 39.3861C23.6021 39.0931 23.4375 38.6957 23.4375 38.2812H21.875C21.8772 38.9723 22.1085 39.6431 22.5326 40.1888C22.9566 40.7344 23.5496 41.1241 24.2188 41.2969V42.9688H25.7812V41.2969C26.509 41.0993 27.1407 40.6453 27.56 40.0186C27.9792 39.3918 28.1577 38.6346 28.0626 37.8866C27.9674 37.1386 27.605 36.4502 27.0421 35.9484C26.4793 35.4466 25.754 35.1653 25 35.1562C24.691 35.1562 24.3889 35.0646 24.1319 34.8929C23.875 34.7212 23.6747 34.4772 23.5564 34.1917C23.4382 33.9062 23.4072 33.592 23.4675 33.2889C23.5278 32.9858 23.6766 32.7074 23.8951 32.4889C24.1137 32.2704 24.3921 32.1216 24.6952 32.0613C24.9983 32.001 25.3124 32.0319 25.5979 32.1502C25.8835 32.2685 26.1275 32.4687 26.2992 32.7257C26.4709 32.9826 26.5625 33.2847 26.5625 33.5938H28.125C28.1228 32.9027 27.8915 32.2319 27.4674 31.6862C27.0434 31.1406 26.4504 30.7509 25.7812 30.5781V28.9062H24.2188V30.5781C23.491 30.7757 22.8593 31.2297 22.44 31.8564C22.0208 32.4832 21.8423 33.2404 21.9374 33.9884C22.0326 34.7364 22.395 35.4248 22.9579 35.9266C23.5207 36.4284 24.246 36.7097 25 36.7188C25.4144 36.7188 25.8118 36.8834 26.1049 37.1764C26.3979 37.4694 26.5625 37.8668 26.5625 38.2812C26.5625 38.6957 26.3979 39.0931 26.1049 39.3861C25.8118 39.6791 25.4144 39.8438 25 39.8438Z" fill="white"/>
<path d="M25 46.0938C27.0087 46.0938 28.9723 45.4981 30.6425 44.3821C32.3127 43.2661 33.6144 41.6799 34.3831 39.8241C35.1518 37.9683 35.353 35.9262 34.9611 33.9561C34.5692 31.986 33.6019 30.1763 32.1815 28.756C30.7612 27.3356 28.9515 26.3683 26.9814 25.9764C25.0113 25.5845 22.9692 25.7857 21.1134 26.5544C19.2576 27.3231 17.6714 28.6248 16.5554 30.295C15.4394 31.9652 14.8438 33.9288 14.8438 35.9375C14.8438 38.6311 15.9138 41.2144 17.8184 43.1191C19.7231 45.0237 22.3064 46.0938 25 46.0938ZM25 27.3438C26.6997 27.3438 28.3612 27.8478 29.7744 28.7921C31.1877 29.7364 32.2891 31.0785 32.9396 32.6488C33.59 34.2191 33.7602 35.947 33.4286 37.6141C33.097 39.2811 32.2785 40.8123 31.0767 42.0142C29.8748 43.2161 28.3436 44.0345 26.6765 44.3661C25.0095 44.6977 23.2816 44.5275 21.7113 43.8771C20.141 43.2267 18.7988 42.1252 17.8546 40.7119C16.9103 39.2987 16.4062 37.6372 16.4062 35.9375C16.4062 33.6583 17.3117 31.4724 18.9233 29.8608C20.5349 28.2492 22.7208 27.3438 25 27.3438Z" fill="white"/>
<path d="M37.5001 35.9375H39.0626V42.1875C39.0626 42.3947 39.1449 42.5934 39.2914 42.7399C39.4379 42.8864 39.6366 42.9687 39.8438 42.9687H42.9688C43.176 42.9687 43.3747 42.8864 43.5212 42.7399C43.6677 42.5934 43.7501 42.3947 43.7501 42.1875V35.9375H45.3126C45.4557 35.9368 45.5959 35.8969 45.7179 35.8219C45.8398 35.747 45.9389 35.64 46.0042 35.5126C46.0695 35.3853 46.0985 35.2424 46.0882 35.0996C46.0778 34.9569 46.0284 34.8197 45.9454 34.7031L42.0391 29.2344C41.9667 29.1343 41.8716 29.0529 41.7616 28.9967C41.6516 28.9405 41.5298 28.9113 41.4063 28.9113C41.2828 28.9113 41.161 28.9405 41.051 28.9967C40.941 29.0529 40.8459 29.1343 40.7735 29.2344L36.8672 34.7031C36.7842 34.8197 36.7348 34.9569 36.7245 35.0996C36.7141 35.2424 36.7431 35.3853 36.8084 35.5126C36.8737 35.64 36.9728 35.747 37.0948 35.8219C37.2167 35.8969 37.3569 35.9368 37.5001 35.9375ZM41.4063 31.0312L43.7969 34.375H42.9688C42.7616 34.375 42.5629 34.4573 42.4164 34.6038C42.2699 34.7503 42.1876 34.949 42.1876 35.1562V41.4062H40.6251V35.1562C40.6251 34.949 40.5427 34.7503 40.3962 34.6038C40.2497 34.4573 40.051 34.375 39.8438 34.375H39.0157L41.4063 31.0312Z" fill="white"/>
<path d="M7.961 42.6406C8.03343 42.7407 8.12854 42.8221 8.23855 42.8783C8.34855 42.9344 8.4703 42.9637 8.59381 42.9637C8.71732 42.9637 8.83907 42.9344 8.94907 42.8783C9.05907 42.8221 9.15419 42.7407 9.22662 42.6406L13.1329 37.1719C13.2159 37.0553 13.2653 36.9181 13.2757 36.7753C13.286 36.6326 13.257 36.4897 13.1917 36.3623C13.1264 36.235 13.0273 36.128 12.9054 36.0531C12.7834 35.9781 12.6432 35.9382 12.5001 35.9375H10.9376V29.6875C10.9376 29.4803 10.8552 29.2816 10.7087 29.1351C10.5622 28.9886 10.3635 28.9062 10.1563 28.9062H7.03131C6.82411 28.9062 6.6254 28.9886 6.47888 29.1351C6.33237 29.2816 6.25006 29.4803 6.25006 29.6875V35.9375H4.68756C4.54442 35.9382 4.40422 35.9781 4.28225 36.0531C4.16029 36.128 4.06125 36.235 3.99595 36.3623C3.93065 36.4897 3.9016 36.6326 3.91197 36.7753C3.92234 36.9181 3.97173 37.0553 4.05475 37.1719L7.961 42.6406ZM7.03131 37.5C7.23851 37.5 7.43722 37.4177 7.58374 37.2712C7.73025 37.1247 7.81256 36.926 7.81256 36.7188V30.4688H9.37506V36.7188C9.37506 36.926 9.45737 37.1247 9.60388 37.2712C9.75039 37.4177 9.94911 37.5 10.1563 37.5H10.9844L8.59381 40.8438L6.20319 37.5H7.03131Z" fill="white"/>
<path d="M14.0625 21.0938H17.1875C17.3947 21.0938 17.5934 21.0114 17.7399 20.8649C17.8864 20.7184 17.9688 20.5197 17.9688 20.3125V14.0625C17.9688 13.8553 17.8864 13.6566 17.7399 13.5101C17.5934 13.3636 17.3947 13.2812 17.1875 13.2812H14.0625C13.8553 13.2812 13.6566 13.3636 13.5101 13.5101C13.3636 13.6566 13.2812 13.8553 13.2812 14.0625V20.3125C13.2812 20.5197 13.3636 20.7184 13.5101 20.8649C13.6566 21.0114 13.8553 21.0938 14.0625 21.0938ZM14.8438 14.8438H16.4062V19.5312H14.8438V14.8438Z" fill="white"/>
<path d="M20.3125 11.7188C20.1053 11.7188 19.9066 11.8011 19.7601 11.9476C19.6136 12.0941 19.5312 12.2928 19.5312 12.5V20.3125C19.5312 20.5197 19.6136 20.7184 19.7601 20.8649C19.9066 21.0114 20.1053 21.0938 20.3125 21.0938H23.4375C23.6447 21.0938 23.8434 21.0114 23.9899 20.8649C24.1364 20.7184 24.2188 20.5197 24.2188 20.3125V12.5C24.2188 12.2928 24.1364 12.0941 23.9899 11.9476C23.8434 11.8011 23.6447 11.7188 23.4375 11.7188H20.3125ZM22.6562 19.5312H21.0938V13.2812H22.6562V19.5312Z" fill="white"/>
<path d="M26.5625 10.1562C26.3553 10.1562 26.1566 10.2386 26.0101 10.3851C25.8636 10.5316 25.7812 10.7303 25.7812 10.9375V20.3125C25.7812 20.5197 25.8636 20.7184 26.0101 20.8649C26.1566 21.0114 26.3553 21.0938 26.5625 21.0938H29.6875C29.8947 21.0938 30.0934 21.0114 30.2399 20.8649C30.3864 20.7184 30.4688 20.5197 30.4688 20.3125V10.9375C30.4688 10.7303 30.3864 10.5316 30.2399 10.3851C30.0934 10.2386 29.8947 10.1562 29.6875 10.1562H26.5625ZM28.9062 19.5312H27.3438V11.7188H28.9062V19.5312Z" fill="white"/>
<path d="M32.8125 8.59375C32.6053 8.59375 32.4066 8.67606 32.2601 8.82257C32.1136 8.96909 32.0312 9.1678 32.0312 9.375V20.3125C32.0312 20.5197 32.1136 20.7184 32.2601 20.8649C32.4066 21.0114 32.6053 21.0938 32.8125 21.0938H35.9375C36.1447 21.0938 36.3434 21.0114 36.4899 20.8649C36.6364 20.7184 36.7188 20.5197 36.7188 20.3125V9.375C36.7188 9.1678 36.6364 8.96909 36.4899 8.82257C36.3434 8.67606 36.1447 8.59375 35.9375 8.59375H32.8125ZM35.1562 19.5312H33.5938V10.1562H35.1562V19.5312Z" fill="white"/>
<path d="M20.6016 7.8125H29.6875C29.7903 7.81309 29.8922 7.79339 29.9874 7.75451C30.0826 7.71563 30.1692 7.65834 30.2422 7.58594L34.375 3.44531V4.6875H35.9375V1.5625C35.9375 1.3553 35.8552 1.15659 35.7087 1.01007C35.5622 0.86356 35.3634 0.78125 35.1562 0.78125H32.0312V2.34375H33.2734L29.3672 6.25H20.3125C20.1263 6.24999 19.9462 6.31648 19.8047 6.4375L14.3359 11.125L15.3516 12.3125L20.6016 7.8125Z" fill="white"/>
</svg>
