<svg width="50" height="50" viewBox="0 0 50 50" fill="none" xmlns="http://www.w3.org/2000/svg">
<path d="M21.2788 1.80926L22.1641 3.18961C25.4019 1.1613 29.5141 1.1613 32.752 3.18961L33.6372 1.80926C29.8709 -0.602762 25.0452 -0.602762 21.2788 1.80926Z" fill="white"/>
<path d="M17.623 11.4747H15.9837C15.9813 12.9913 16.2817 14.493 16.8673 15.892L18.3804 15.2592C17.8784 14.0608 17.6209 12.7741 17.623 11.4747Z" fill="white"/>
<path d="M31.2394 20.5544C30.0423 21.0563 28.757 21.3135 27.459 21.311V22.9504C28.9747 22.9533 30.4757 22.6531 31.8738 22.0676L31.2394 20.5544Z" fill="white"/>
<path d="M37.2954 11.4747C37.2976 12.7732 37.0404 14.0591 36.5388 15.2568L38.052 15.8896C38.6374 14.4915 38.9375 12.9904 38.9348 11.4747H37.2954Z" fill="white"/>
<path d="M27.4591 3.27795C22.932 3.27795 19.2622 6.94779 19.2622 11.4748C19.2622 16.0018 22.932 19.6717 27.4591 19.6717C31.984 19.6666 35.651 15.9998 35.6559 11.4748C35.6559 6.94789 31.9861 3.27795 27.4591 3.27795ZM27.4591 18.0323C23.8375 18.0323 20.9016 15.0964 20.9016 11.4748C20.9016 7.85323 23.8375 4.91733 27.4591 4.91733C31.0806 4.91733 34.0166 7.85323 34.0166 11.4748C34.0125 15.0947 31.079 18.0283 27.4591 18.0323Z" fill="white"/>
<path d="M29.2625 11.2133L28.2789 10.8854V8.78209C28.7354 8.94141 29.0562 9.35361 29.0985 9.83538H30.7379C30.6647 8.45206 29.644 7.30348 28.2789 7.06812V6.55664H26.6395V7.06812C25.2743 7.30348 24.2537 8.45206 24.1804 9.83538C24.2126 10.7202 24.8067 11.4856 25.6559 11.7362L26.6395 12.0641V14.1658C26.1834 14.0067 25.8627 13.5953 25.8198 13.1141H24.1804C24.2537 14.4974 25.2743 15.646 26.6395 15.8814V16.3929H28.2789V15.8814C29.644 15.646 30.6647 14.4974 30.7379 13.1141C30.7057 12.2293 30.1117 11.464 29.2625 11.2133ZM26.6395 10.3395L26.1723 10.1821C25.9649 10.1124 25.8198 9.96981 25.8198 9.83538C25.8621 9.35361 26.1829 8.94141 26.6395 8.78209V10.3395ZM28.2789 14.1674V12.61L28.7461 12.7674C28.9535 12.8371 29.0985 12.9797 29.0985 13.1141C29.0562 13.5959 28.7354 14.0081 28.2789 14.1674Z" fill="white"/>
<path d="M49.3504 33.8464L46.6512 31.1472L49.3504 28.448C49.6704 28.1279 49.6704 27.609 49.3504 27.2889L38.6945 16.633C38.3744 16.3131 37.8555 16.3131 37.5354 16.633L27.0492 27.1193L15.7433 15.8134C15.4232 15.4934 14.9043 15.4934 14.5842 15.8134L3.92833 26.4693C3.60835 26.7894 3.60835 27.3082 3.92833 27.6283L9.9063 33.6063H0.409424V35.2456H11.0653C11.1764 35.2459 11.2863 35.2233 11.3883 35.1792L16.9712 32.7866H29.0984V36.0653H20.0819C19.6292 36.0653 19.2622 36.4322 19.2622 36.885C19.2622 37.2048 19.4482 37.4954 19.7384 37.6293L30.3943 42.5474C30.6625 42.6693 30.9754 42.6381 31.214 42.4654L45.4102 32.221L47.5684 34.3792L31.2542 48.3606H26.7861L11.3489 42.6736C11.2582 42.6401 11.1622 42.6229 11.0653 42.6228H0.409424V44.2622H10.9186L26.3558 49.9492C26.4465 49.9828 26.5425 49.9999 26.6394 50H31.5575C31.7531 50.0002 31.9421 49.9301 32.0903 49.8024L49.3037 35.0481C49.6474 34.7535 49.6874 34.2361 49.3928 33.8923C49.3793 33.8766 49.3651 33.8612 49.3504 33.8464ZM16.8031 31.1472C16.6921 31.1469 16.5821 31.1694 16.4802 31.2136L16.281 31.2956C17.0903 29.1953 19.4491 28.1488 21.5493 28.9581C22.5717 29.3521 23.3923 30.1411 23.8262 31.1472H16.8031ZM25.5779 31.1472C24.8602 28.7115 22.6211 27.0418 20.0819 27.0488C17.1812 27.0662 14.7437 29.2326 14.3859 32.1112L11.826 33.2079L5.66689 27.0488L15.1638 17.5519L28.7591 31.1472H25.5779ZM30.6468 40.858L23.8139 37.7047H29.9181C30.3708 37.7047 30.7378 37.3377 30.7378 36.885V33.1259L35.1887 37.5768L30.6468 40.858ZM30.8148 30.8849C31.1253 29.1352 32.6493 27.8622 34.4264 27.8685C36.459 27.8648 38.1097 29.5095 38.1135 31.5421C38.1168 33.3206 36.8477 34.847 35.0985 35.1686L30.8148 30.8849ZM36.4289 36.4973C36.7578 36.3639 37.0721 36.1975 37.3679 36.0015L36.5346 36.603L36.4289 36.4973ZM44.9602 30.5202L37.7371 35.7374C40.0382 33.9036 40.4171 30.5514 38.5832 28.2502C36.7494 25.9491 33.3972 25.5702 31.096 27.4041C30.3838 27.9716 29.829 28.7123 29.4844 29.5554L28.2081 28.2783L38.1149 18.3716L47.6117 27.8685L44.9602 30.5202Z" fill="white"/>
</svg>
